<svg width="256" height="256" viewBox="0 0 256 256" xmlns="http://www.w3.org/2000/svg" role="img" aria-label="Cute default avatar">
  <defs>
    <linearGradient id="bg" x1="0" y1="0" x2="1" y2="1">
      <stop offset="0%" stop-color="#9AE6B4"/>
      <stop offset="100%" stop-color="#63B3ED"/>
    </linearGradient>
  </defs>
  <rect width="256" height="256" rx="48" fill="url(#bg)"/>
  <circle cx="128" cy="106" r="52" fill="#F7D9B9"/>
  <ellipse cx="96" cy="101" rx="8" ry="9" fill="#2D3748"/>
  <ellipse cx="160" cy="101" rx="8" ry="9" fill="#2D3748"/>
  <path d="M101 132 C111 146 145 146 155 132" stroke="#2D3748" stroke-width="7" stroke-linecap="round" fill="none"/>
  <ellipse cx="80" cy="116" rx="10" ry="7" fill="#F687B3" opacity="0.5"/>
  <ellipse cx="176" cy="116" rx="10" ry="7" fill="#F687B3" opacity="0.5"/>
  <path d="M72 88 C74 62 95 46 128 46 C161 46 182 62 184 88 C167 73 145 67 128 67 C111 67 89 73 72 88Z" fill="#2D3748"/>
  <path d="M57 220 C63 171 89 148 128 148 C167 148 193 171 199 220" fill="#F7D9B9"/>
  <path d="M50 226 C56 180 88 156 128 156 C168 156 200 180 206 226" fill="#2D3748"/>
  <circle cx="203" cy="58" r="13" fill="#FFFFFF" opacity="0.65"/>
  <circle cx="54" cy="67" r="7" fill="#FFFFFF" opacity="0.55"/>
</svg>
